<?xml version="1.0" encoding="iso-8859-1"?>
<!-- Generator: Adobe Illustrator 19.0.0, SVG Export Plug-In . SVG Version: 6.00 Build 0)  -->
<svg version="1.1" id="Capa_1" xmlns="http://www.w3.org/2000/svg" xmlns:xlink="http://www.w3.org/1999/xlink" x="0px" y="0px"
	 viewBox="0 0 468.293 468.293" style="enable-background:new 0 0 468.293 468.293;" xml:space="preserve">
<path style="fill:#2D93BA;" d="M339.472,326.805c-17.383,0-31.526-14.143-31.526-31.526V188.006h-38.8v107.273
	c0,38.777,31.549,70.326,70.326,70.326h87.929v-38.8H339.472z"/>
<path style="fill:#2F4859;" d="M458.12,443.206h10.173V247.991H458.12c-19.828,0-35.902,16.074-35.902,35.902v123.41
	C422.217,427.132,438.291,443.206,458.12,443.206z"/>
<path style="fill:#D5D6DB;" d="M82.239,247.677l320.064-75.311c10.909-2.567,17.672-13.492,15.105-24.401l-28.123-119.52
	L29.715,113.051l28.123,119.52C60.405,243.481,71.33,250.244,82.239,247.677z"/>
<ellipse transform="matrix(-0.229 -0.9734 0.9734 -0.229 -111.744 282.2643)" style="fill:#64798A;" cx="55.907" cy="185.384" rx="64.918" ry="28.098"/>
<ellipse transform="matrix(-0.229 -0.9734 0.9734 -0.229 -113.2088 285.382)" style="fill:#2F4859;" cx="56.409" cy="187.523" rx="29.078" ry="12.169"/>
<path style="fill:#E1E6E9;" d="M58.969,168.449l327.289-77.011c12.6-2.965,20.448-15.43,17.527-27.841l-5.592-23.766
	c-2.427-10.315-12.884-16.679-23.356-14.215L0,113.815l34.885,46.069C40.441,167.221,49.897,170.584,58.969,168.449z"/>
<g>
	<circle style="fill:#E56353;" cx="352.843" cy="159.781" r="12.488"/>
	<circle style="fill:#E56353;" cx="383.319" cy="150.934" r="12.488"/>
	<circle style="fill:#E56353;" cx="321.255" cy="169.104" r="12.488"/>
</g>
<g>
</g>
<g>
</g>
<g>
</g>
<g>
</g>
<g>
</g>
<g>
</g>
<g>
</g>
<g>
</g>
<g>
</g>
<g>
</g>
<g>
</g>
<g>
</g>
<g>
</g>
<g>
</g>
<g>
</g>
</svg>
