<?xml version="1.0" encoding="iso-8859-1"?>
<!-- Generator: Adobe Illustrator 19.0.0, SVG Export Plug-In . SVG Version: 6.00 Build 0)  -->
<svg version="1.1" id="Capa_1" xmlns="http://www.w3.org/2000/svg" xmlns:xlink="http://www.w3.org/1999/xlink" x="0px" y="0px"
	 viewBox="0 0 480.096 480.096" style="enable-background:new 0 0 480.096 480.096;" xml:space="preserve">
<g>
	<path style="fill:#03DDD7;" d="M423.346,424c12.8-14.008,21.752-30.632,27.904-48c5.64-15.912,8.952-32.4,10.784-48
		c4.912-41.832-0.784-77.184-0.784-77.2l0,0c0,0-111.944-18.08-173.2,37.896c-1.272,1.16-2.552,2.304-3.776,3.528
		c-60.32,60.304-41.432,176.976-41.432,176.976s116.664,18.888,176.976-41.416C421.042,426.552,422.186,425.272,423.346,424z"/>
	<path style="fill:#03DDD7;" d="M18.842,250.8L18.842,250.8c0,0.016-5.696,35.368-0.784,77.2c1.832,15.6,5.144,32.088,10.784,48
		c6.152,17.368,15.104,33.992,27.904,48c1.16,1.272,2.296,2.552,3.528,3.776c60.312,60.304,176.976,41.416,176.976,41.416
		s18.888-116.664-41.416-176.976c-1.224-1.224-2.512-2.368-3.776-3.528C130.786,232.728,18.842,250.8,18.842,250.8z"/>
	<path style="fill:#03DDD7;" d="M224.042,168c0,8.84,7.16,16,16,16h16c8.84,0,16,7.16,16,16s-7.16,16-16,16h-97.448
		c21.368,19.84,49.96,32,81.448,32c58.056,0,106.472-41.224,117.592-96H240.042C231.202,152,224.042,159.16,224.042,168z"/>
	<path style="fill:#03DDD7;" d="M208.042,120c0-8.84-7.16-16-16-16h-16c-8.84,0-16-7.16-16-16s7.16-16,16-16h48
		c8.84,0,16-7.16,16-16s-7.16-16-16-16H158.65c-23.688,21.92-38.608,53.176-38.608,88c0,2.704,0.232,5.344,0.4,8h71.6
		C200.882,136,208.042,128.84,208.042,120z"/>
</g>
<path style="fill:#1881D1;" d="M256.042,216c8.84,0,16-7.16,16-16s-7.16-16-16-16h-16c-8.84,0-16-7.16-16-16s7.16-16,16-16h117.592
	c1.576-7.752,2.408-15.776,2.408-24c0-2.704-0.232-5.344-0.4-8h-27.6c-6.624,0-12-5.376-12-12s-5.376-12-12-12h-12
	c-8.84,0-16-7.16-16-16s7.16-16,16-16h45.384C320.162,30.384,282.762,8,240.042,8c-31.456,0-59.992,12.2-81.392,32h65.392
	c8.84,0,16,7.16,16,16s-7.16,16-16,16h-48c-8.84,0-16,7.16-16,16s7.16,16,16,16h16c8.84,0,16,7.16,16,16s-7.16,16-16,16h-71.6
	c2.088,31.56,16.368,59.776,38.152,80H256.042z"/>
<path style="fill:#03DDD7;" d="M280.042,80c0,8.84,7.16,16,16,16h12c6.624,0,12,5.376,12,12c0,6.624,5.376,12,12,12h27.6
	c-1.36-20.512-7.824-39.584-18.208-56h-45.392C287.202,64,280.042,71.16,280.042,80z"/>
<g>
	<path style="fill:#243766;" d="M469.138,249.52c-0.552-3.4-3.216-6.064-6.616-6.616c-4.936-0.8-121.424-18.832-183.912,43.656
		c-20.136,20.136-31.88,45.88-38.56,71.688c-6.688-25.808-18.432-51.552-38.56-71.688c-62.496-62.496-179-44.456-183.912-43.656
		c-3.4,0.552-6.064,3.216-6.616,6.616c-0.8,4.928-18.832,121.432,43.664,183.904c39.096,39.104,99.32,46.672,140.152,46.672
		c24.432,0,41.912-2.712,43.76-3.008c0.544-0.088,1.024-0.312,1.52-0.504c0.496,0.192,0.984,0.416,1.52,0.504
		c1.848,0.296,19.328,3.008,43.76,3.008c40.832,0,101.064-7.576,140.152-46.672C487.962,370.952,469.93,254.456,469.138,249.52z
		 M307.354,416l32-32h100.008c-5.024,11.504-11.504,22.36-19.784,32H307.354z M296.042,292.448c9.64-8.264,20.496-14.744,32-19.752
		v99.992l-32,32V292.448z M455.066,268.288c0.952,12.48,1.576,31-0.296,51.712h-51.408L455.066,268.288z M387.354,336h65.424
		c-1.616,10.584-3.936,21.384-7.312,32h-90.112L387.354,336z M344.042,356.688v-90.08c10.616-3.368,21.416-5.688,32-7.304v65.384
		L344.042,356.688z M443.73,256.992l-51.688,51.696v-51.376C412.738,255.44,431.25,256.056,443.73,256.992z M280.042,309.408v111.28
		l-31.008,31.008C246.73,421.152,246.33,354.088,280.042,309.408z M231.05,451.696l-31.008-31.008v-111.28
		C233.754,354.088,233.354,421.152,231.05,451.696z M76.73,320H25.354c-1.88-20.696-1.264-39.216-0.32-51.696L76.73,320z
		 M27.346,336H92.73l32,32H34.65C31.282,357.384,28.962,346.584,27.346,336z M104.042,324.688v-65.384
		c10.584,1.616,21.384,3.936,32,7.304v90.08L104.042,324.688z M152.042,272.696c11.504,5.016,22.36,11.488,32,19.752v112.24l-32-32
		V272.696z M88.042,257.312v51.368l-51.696-51.696C48.834,256.056,67.346,255.44,88.042,257.312z M40.738,384h99.992l32,32H60.506
		C52.234,406.36,45.754,395.504,40.738,384z M77.458,432H188.73l31.016,31.016C189.21,465.328,122.186,465.768,77.458,432z
		 M260.346,463.008L291.354,432h111.264C357.946,465.712,290.89,465.304,260.346,463.008z"/>
	<path style="fill:#243766;" d="M368.042,128c0-70.576-57.424-128-128-128s-128,57.424-128,128s57.424,128,128,128
		S368.042,198.576,368.042,128z M240.042,240c-20.992,0-40.584-5.912-57.392-16h73.392c13.232,0,24-10.768,24-24s-10.768-24-24-24
		h-16c-4.416,0-8-3.584-8-8s3.584-8,8-8h107.28C333.514,206.2,290.674,240,240.042,240z M350.762,112h-18.72c-2.2,0-4-1.8-4-4
		c0-11.032-8.968-20-20-20h-12c-4.416,0-8-3.584-8-8s3.584-8,8-8h40.848C343.906,84.096,348.69,97.6,350.762,112z M161.81,48h62.232
		c4.416,0,8,3.584,8,8s-3.584,8-8,8h-48c-13.232,0-24,10.768-24,24s10.768,24,24,24h16c4.416,0,8,3.584,8,8s-3.584,8-8,8h-64
		C128.042,96.672,141.01,68.344,161.81,48z M129.322,144h62.72c13.232,0,24-10.768,24-24s-10.768-24-24-24h-16c-4.416,0-8-3.584-8-8
		s3.584-8,8-8h48c13.232,0,24-10.768,24-24s-10.768-24-24-24H182.65c16.808-10.088,36.4-16,57.392-16
		c34.352,0,65.104,15.576,85.664,40h-29.664c-13.232,0-24,10.768-24,24s10.768,24,24,24h12c2.2,0,4,1.8,4,4c0,11.032,8.968,20,20,20
		h20c0,5.448-0.52,10.76-1.28,16h-110.72c-13.232,0-24,10.768-24,24s10.768,24,24,24h16c4.416,0,8,3.584,8,8s-3.584,8-8,8H161.81
		C144.626,191.192,132.906,168.904,129.322,144z"/>
	<rect x="384.042" y="112" style="fill:#243766;" width="16" height="16"/>
	<rect x="416.042" y="112" style="fill:#243766;" width="16" height="16"/>
	<rect x="416.042" y="144" style="fill:#243766;" width="16" height="16"/>
	<rect x="416.042" y="176" style="fill:#243766;" width="16" height="16"/>
	<rect x="416.042" y="208" style="fill:#243766;" width="16" height="16"/>
	<rect x="80.042" y="112" style="fill:#243766;" width="16" height="16"/>
	<rect x="48.042" y="112" style="fill:#243766;" width="16" height="16"/>
	<rect x="48.042" y="144" style="fill:#243766;" width="16" height="16"/>
	<rect x="48.042" y="176" style="fill:#243766;" width="16" height="16"/>
	<rect x="48.042" y="208" style="fill:#243766;" width="16" height="16"/>
</g>
<g>
</g>
<g>
</g>
<g>
</g>
<g>
</g>
<g>
</g>
<g>
</g>
<g>
</g>
<g>
</g>
<g>
</g>
<g>
</g>
<g>
</g>
<g>
</g>
<g>
</g>
<g>
</g>
<g>
</g>
</svg>
