<?xml version="1.0" encoding="iso-8859-1"?>
<!-- Generator: Adobe Illustrator 19.0.0, SVG Export Plug-In . SVG Version: 6.00 Build 0)  -->
<svg version="1.1" id="Capa_1" xmlns="http://www.w3.org/2000/svg" xmlns:xlink="http://www.w3.org/1999/xlink" x="0px" y="0px"
	 viewBox="0 0 512 512" style="enable-background:new 0 0 512 512;" xml:space="preserve">
<g>
	<g>
		<g>
			<path d="M447.504,387.072l-31.008-8c-4.016,15.68-8.864,31.296-14.4,46.4l30.064,10.96
				C438.048,420.4,443.2,403.76,447.504,387.072z"/>
			<path d="M432,256c-0.002,31.209-2.937,62.349-8.768,93.008l31.44,6c6.209-32.637,9.332-65.786,9.328-99.008
				c-0.131-66.933-32.359-129.741-86.656-168.88l-18.688,25.968C404.599,146.214,431.874,199.36,432,256z"/>
			<path d="M109.328,158.8C157.197,86.565,250.523,59.923,329.312,96l13.376-29.056C315.515,54.396,285.93,47.931,256,48
				c-69.734-0.028-134.831,34.928-173.328,93.072L109.328,158.8z"/>
			<path d="M65.344,172.8C53.838,199.025,47.931,227.362,48,256c0.002,20.041-5.41,39.71-15.664,56.928l27.472,16.4
				C73.022,307.151,79.998,281.815,80,256c-0.058-24.23,4.933-48.206,14.656-70.4L65.344,172.8z"/>
			<path d="M326.24,441.104l28.8,13.792c22.442-46.978,36.731-97.431,42.256-149.2l-31.808-3.392
				C360.354,350.458,347.083,397.392,326.24,441.104z"/>
			<path d="M256,112c-18.521-0.025-36.871,3.545-54.032,10.512l12.064,29.664c13.325-5.426,27.58-8.203,41.968-8.176
				c61.823,0.079,111.921,50.177,112,112c0,5.173-0.091,10.32-0.272,15.44l32,1.12c0.208-5.504,0.304-11.008,0.304-16.56
				C399.944,176.495,335.505,112.071,256,112z"/>
			<path d="M144,256c0.029-32.162,13.882-62.759,38.032-84l-21.152-24c-31.043,27.313-48.848,66.652-48.88,108
				c0.096,43.04-15.717,84.598-44.4,116.688l23.84,21.344C125.379,356.075,144.097,306.917,144,256z"/>
			<path d="M235.504,469.376L261.472,488c14.752-20.529,27.519-42.414,38.128-65.36l-29.072-13.408
				C260.787,430.345,249.059,450.484,235.504,469.376z"/>
			<path d="M256,176c-44.183,0-80,35.817-80,80c0.007,10.024-0.618,20.039-1.872,29.984l31.744,4.032
				c1.419-11.283,2.13-22.644,2.128-34.016c0-26.51,21.49-48,48-48c26.51,0,48,21.49,48,48
				c0.065,41.785-7.036,83.271-20.992,122.656l30.16,10.688C328.341,346.527,336.064,301.426,336,256
				C335.947,211.839,300.161,176.053,256,176z"/>
			<path d="M168.384,315.984c-9.962,38.189-29.141,73.35-55.856,102.4L136.096,440c30.258-32.886,51.981-72.696,63.264-115.936
				L168.384,315.984z"/>
			<path d="M240,256c-0.054,71.58-25.351,140.848-71.44,195.616l24.464,20.624C243.974,411.699,271.94,335.128,272,256H240z"/>
			<polygon points="32,32 96,32 96,0 0,0 0,96 32,96 			"/>
			<polygon points="416,0 416,32 480,32 480,96 512,96 512,0 			"/>
			<polygon points="32,416 0,416 0,512 96,512 96,480 32,480 			"/>
			<polygon points="480,480 416,480 416,512 512,512 512,416 480,416 			"/>
		</g>
	</g>
</g>
<g>
</g>
<g>
</g>
<g>
</g>
<g>
</g>
<g>
</g>
<g>
</g>
<g>
</g>
<g>
</g>
<g>
</g>
<g>
</g>
<g>
</g>
<g>
</g>
<g>
</g>
<g>
</g>
<g>
</g>
</svg>
