<?xml version="1.0" encoding="iso-8859-1"?>
<!-- Generator: Adobe Illustrator 16.0.0, SVG Export Plug-In . SVG Version: 6.00 Build 0)  -->
<!DOCTYPE svg PUBLIC "-//W3C//DTD SVG 1.1//EN" "http://www.w3.org/Graphics/SVG/1.1/DTD/svg11.dtd">
<svg xmlns="http://www.w3.org/2000/svg" xmlns:xlink="http://www.w3.org/1999/xlink" version="1.1" id="Capa_1" x="0px" y="0px" width="512px" height="512px" viewBox="0 0 366.541 366.541" style="enable-background:new 0 0 366.541 366.541;" xml:space="preserve">
<g>
	<g>
		<path d="M128.309,140.504c1.177,0.26,2.267,0.238,5.621-2.334c1.49-1.142,3.694-3.073,5.724-5.758l0.89-1.184    c7.611-10.125,25.434-33.83,51.175-32.538c21.23,1.547,36.274,17.578,43.516,46.358c0.243,0.979,0.394,1.581,0.562,2.04    c0.134,0.582,0.28,1.17,0.438,1.768h7.809c-0.369-1.206-0.732-2.507-1.016-3.758c-0.052-0.214-0.12-0.417-0.209-0.616    c-0.068-0.247-0.199-0.782-0.322-1.259c-1.149-4.565-4.195-16.68-11.587-28.075c-9.541-14.723-22.562-22.771-38.698-23.935    c-0.027,0-0.048,0-0.078-0.007c-29.734-1.514-49.249,24.436-57.582,35.522l-0.879,1.164c-2.279,3.011-4.973,4.892-5.905,5.436    c-0.316,0.122-0.621,0.294-0.901,0.508c-1.164,0.883-1.737,2.389-1.422,3.819C125.765,139.075,126.884,140.199,128.309,140.504z" fill="#3dbdbe"/>
		<path d="M168.28,192.914c-10.353,6.249-23.43,13.716-33.745,18.124c-1.903,0.814-2.786,3.011-1.973,4.914    c0.611,1.424,1.992,2.279,3.45,2.279c0.486,0,0.987-0.096,1.471-0.295c14.679-6.29,34.565-18.404,45.055-25.026H168.28V192.914z" fill="#3dbdbe"/>
		<path d="M223.887,148.855c0.91-5.051,0.418-9.953-1.526-14.003c-2.416-5.051-6.92-8.706-13.024-10.583    c-8.967-2.738-19.828,2.238-29.78,13.642c-0.074,0.081-4.776,5.031-11.583,10.944h11.173c3.703-3.504,5.984-5.934,6.037-5.989    c6.042-6.921,14.98-13.565,21.959-11.425c4.106,1.25,6.95,3.491,8.463,6.644c1.416,2.972,1.618,6.784,0.643,10.766h7.639V148.855z    " fill="#3dbdbe"/>
		<path d="M174.78,124.798c0.288-0.245,0.585-0.488,0.883-0.732c0.077-0.063,0.659-0.519,0.806-0.638    c2.608-1.997,5.39-3.776,8.316-5.284c2.765-1.424,5.537-2.415,8.897-3.116c1.116-0.231,1.362-0.258,2.197-0.342    c2.029-0.215,3.743-1.546,3.743-3.75c0-1.882-1.707-3.956-3.743-3.742c-13.548,1.395-25.134,9.868-34.066,19.705    c-1.696,1.873-3.224,3.886-4.875,5.802c-2.147,2.521-4.502,4.875-6.959,7.089c-2.527,2.286-4.574,3.915-7.551,5.624    c-2.037,1.17-4.108,2.32-6.196,3.434h14.476c5.222-3.97,9.714-8.608,13.846-13.68c1.678-2.061,3.472-4.023,5.343-5.909    c1.023-1.026,2.084-2.017,3.161-2.993C173.627,125.774,174.199,125.285,174.78,124.798z" fill="#3dbdbe"/>
		<path d="M132.652,198.656c2.354-0.804,7.53-2.693,14.255-5.746h-18.632c-0.761,0.989-1.016,2.348-0.541,3.598    c0.568,1.502,1.995,2.422,3.511,2.422c0.425,0,0.856-0.074,1.277-0.226L132.652,198.656z" fill="#3dbdbe"/>
		<path d="M199.904,143.094c-1.417,1.983-2.916,3.906-4.463,5.765h9.518c0.353-0.474,0.708-0.933,1.051-1.41    c1.204-1.682,0.807-4.023-0.877-5.228C203.449,141.019,201.102,141.4,199.904,143.094z" fill="#3dbdbe"/>
		<path d="M234.632,220.973c-5.194-1.729-11.553-6.253-17.695-10.633c-8.908-6.349-16.595-11.813-22.85-10.739    c-4.709,0.814-12.929,6.071-25.913,14.627c-9.356,6.167-19.963,13.154-24.578,14.4c-1.998,0.54-3.183,2.594-2.644,4.593    c0.448,1.677,1.963,2.771,3.614,2.771c0.322,0,0.652-0.034,0.974-0.13c5.785-1.554,15.973-8.274,26.76-15.379    c8.711-5.743,19.549-12.889,23.06-13.497c3.176-0.541,10.965,5.003,17.228,9.455c6.591,4.705,13.411,9.559,19.674,11.643    c1.968,0.66,4.083-0.411,4.739-2.372C237.661,223.751,236.597,221.633,234.632,220.973z" fill="#3dbdbe"/>
		<path d="M225.249,239.339c-3.019-1.095-7.933-4.127-12.683-7.063c-10.027-6.204-16.413-9.958-20.985-9.171    c-4.632,0.801-14.366,7.419-30.7,19.342c-2,1.465-3.729,2.724-4.923,3.573c-1.689,1.201-2.096,3.535-0.905,5.222    c0.734,1.026,1.889,1.588,3.066,1.588c0.748,0,1.507-0.223,2.159-0.691c1.244-0.883,2.993-2.152,5.022-3.634    c6.5-4.743,23.772-17.354,27.523-18.008c2.333-0.157,10.77,5.045,15.807,8.151c5.305,3.278,10.324,6.379,14.078,7.734    c1.944,0.712,4.094-0.301,4.799-2.252C228.205,242.187,227.192,240.037,225.249,239.339z" fill="#3dbdbe"/>
		<path d="M212.594,257.97c-2.111-1.38-4.045-2.759-5.917-4.093c-6.143-4.395-11.461-8.187-17.285-7.166    c-6.556,1.125-16.998,11.625-19.027,13.723c-1.436,1.484-1.395,3.859,0.087,5.304c0.726,0.698,1.672,1.048,2.608,1.048    c0.979,0,1.959-0.384,2.691-1.137c5.025-5.188,12.152-11.074,14.92-11.553c2.734-0.473,6.872,2.471,11.649,5.879    c1.848,1.321,3.936,2.807,6.174,4.271c1.731,1.129,4.059,0.646,5.188-1.096C214.812,261.415,214.322,259.099,212.594,257.97z" fill="#3dbdbe"/>
		<path d="M238.294,200.162c-2.813-0.869-4.948-1.975-7.929-3.727c-1.735-1.026-3.405-2.211-4.973-3.525h-10.25    c5.288,6.828,12.939,11.94,21.16,14.477C240.936,208.813,242.903,201.586,238.294,200.162z" fill="#3dbdbe"/>
		<path d="M253.584,150.986H115.827v36.145h137.757V150.986z M247.65,181.195H121.756v-24.277H247.65V181.195z" fill="#3dbdbe"/>
		<polygon points="140.323,174.891 144.169,177.319 146.472,172.326 148.589,177.252 152.749,174.871 149.429,170.721     154.571,171.339 154.571,166.74 149.388,167.424 152.692,163.078 148.669,160.797 146.532,165.713 144.359,160.84     140.304,163.167 143.56,167.388 138.548,166.74 138.548,171.339 143.591,170.69   " fill="#3dbdbe"/>
		<polygon points="165.753,174.891 169.601,177.319 171.902,172.326 174.016,177.252 178.182,174.871 174.861,170.721     179.998,171.339 179.998,166.74 174.814,167.424 178.122,163.078 174.103,160.797 171.959,165.713 169.786,160.84     165.735,163.167 168.99,167.388 163.98,166.74 163.98,171.339 169.019,170.69   " fill="#3dbdbe"/>
		<polygon points="191.185,174.891 195.027,177.319 197.338,172.326 199.445,177.252 203.613,174.871 200.287,170.721     205.428,171.339 205.428,166.74 200.25,167.424 203.553,163.078 199.538,160.797 197.393,165.713 195.216,160.84 191.164,163.167     194.422,167.388 189.412,166.74 189.412,171.339 194.449,170.69   " fill="#3dbdbe"/>
		<polygon points="216.614,174.891 220.458,177.319 222.761,172.326 224.879,177.252 229.044,174.871 225.721,170.721     230.861,171.339 230.861,166.74 225.68,167.424 228.985,163.078 224.961,160.797 222.826,165.713 220.649,160.84 216.598,163.167     219.849,167.388 214.839,166.74 214.839,171.339 219.879,170.69   " fill="#3dbdbe"/>
		<path d="M267.841,0H98.702C87.478,0,78.349,8.788,78.349,19.595v327.35c0,10.808,9.125,19.596,20.353,19.596h169.139    c11.225,0,20.352-8.788,20.352-19.596V19.595C288.189,8.788,279.065,0,267.841,0z M183.271,346.021    c-6.279,0-11.382-5.099-11.382-11.382c0-6.256,5.103-11.362,11.382-11.362c6.278,0,11.384,5.106,11.384,11.362    C194.654,340.923,189.549,346.021,183.271,346.021z M274.299,303.443H92.264V58.179h182.031v245.265H274.299z" fill="#3dbdbe"/>
	</g>
</g>
<g>
</g>
<g>
</g>
<g>
</g>
<g>
</g>
<g>
</g>
<g>
</g>
<g>
</g>
<g>
</g>
<g>
</g>
<g>
</g>
<g>
</g>
<g>
</g>
<g>
</g>
<g>
</g>
<g>
</g>
</svg>
