<?xml version="1.0" encoding="iso-8859-1"?>
<!-- Generator: Adobe Illustrator 19.0.0, SVG Export Plug-In . SVG Version: 6.00 Build 0)  -->
<svg version="1.1" id="Capa_1" xmlns="http://www.w3.org/2000/svg" xmlns:xlink="http://www.w3.org/1999/xlink" x="0px" y="0px"
	 viewBox="0 0 512 512" style="enable-background:new 0 0 512 512;" xml:space="preserve">
<path style="fill:#F9A1A4;" d="M106,341c-12.67,0-24.777-6.455-33.218-17.709C65.184,313.161,61,299.917,61,286h30
	c0,14.309,7.919,25,15,25V341z"/>
<path style="fill:#FC9093;" d="M406,341v-30c7.081,0,15-10.691,15-25h30c0,13.917-4.184,27.161-11.782,37.291
	C430.777,334.545,418.67,341,406,341z"/>
<path style="fill:#FFBCB7;" d="M256,512c-44.903,0-86.833-22.935-118.066-64.579C107.668,407.067,91,353.646,91,297h330
	c0,56.646-16.668,110.067-46.934,150.421C342.833,489.065,300.903,512,256,512z"/>
<path style="fill:#F9A1A4;" d="M256,297v215c44.903,0,86.833-22.935,118.066-64.579C404.332,407.067,421,353.646,421,297H256z"/>
<rect x="181" y="306" style="fill:#FC9093;" width="30" height="55"/>
<rect x="301" y="306" style="fill:#F96D73;" width="30" height="55"/>
<path style="fill:#D6702B;" d="M256,316c-65.75,0-127.756-7.493-174.597-21.098c-23.671-6.875-42.497-15.048-55.956-24.29
	C8.562,259.017,0,245.689,0,231c0-45.245,80.538-66.197,128.546-74.659l255.166,0.045C431.623,164.855,512,185.809,512,231
	c0,14.689-8.562,28.017-25.448,39.612c-13.458,9.242-32.285,17.415-55.956,24.29C383.756,308.507,321.75,316,256,316z"/>
<path style="fill:#BF6015;" d="M383.711,156.387L256,156.364V316c65.75,0,127.756-7.493,174.597-21.098
	c23.671-6.875,42.497-15.048,55.956-24.29C503.438,259.017,512,245.689,512,231C512,185.809,431.623,164.855,383.711,156.387z"/>
<path style="fill:#E08344;" d="M381,166c0-88.99-26.836-166-60-166h-25l-40,40L216,0h-25c-33.164,0-60,77.01-60,166l0,0
	C213.167,185.72,298.833,185.72,381,166L381,166z"/>
<path style="fill:#D6702B;" d="M321,0h-25l-40,40v140.79c41.958,0,83.917-4.93,125-14.79C381,77.01,354.164,0,321,0z"/>
<rect x="167.033" y="87.741" transform="matrix(-0.9966 -0.0826 0.0826 -0.9966 372.8601 270.9079)" style="fill:#FFEA84;" width="50.001" height="80.001"/>
<path style="fill:#063E8B;" d="M132.012,136.235C131.35,145.94,131,155.891,131,166c82.167,19.72,167.833,19.72,250,0
	c0-10.109-0.35-20.06-1.012-29.765C298.467,155.633,213.533,155.633,132.012,136.235z"/>
<path style="fill:#032E68;" d="M379.988,136.235c-40.76,9.699-82.374,14.548-123.988,14.548v30.007c41.958,0,83.917-4.93,125-14.79
	C381,155.891,380.65,145.94,379.988,136.235z"/>
<g>
</g>
<g>
</g>
<g>
</g>
<g>
</g>
<g>
</g>
<g>
</g>
<g>
</g>
<g>
</g>
<g>
</g>
<g>
</g>
<g>
</g>
<g>
</g>
<g>
</g>
<g>
</g>
<g>
</g>
</svg>
